<?xml version="1.0" encoding="iso-8859-1"?>
<!-- Uploaded to: SVG Repo, www.svgrepo.com, Generator: SVG Repo Mixer Tools -->
<svg fill="#000000" height="800px" width="800px" version="1.1" id="Layer_1" xmlns="http://www.w3.org/2000/svg" xmlns:xlink="http://www.w3.org/1999/xlink" 
	 viewBox="0 0 512 512" xml:space="preserve">
<g>
	<g>
		<g>
			<path d="M391.506,183.752c23.083,0,41.864-18.781,41.864-41.864c0-23.083-18.781-41.864-41.864-41.864
				s-41.864,18.781-41.864,41.864C349.642,164.971,368.423,183.752,391.506,183.752z M391.506,116.227
				c14.15,0,25.662,11.511,25.662,25.662c0,14.15-11.511,25.662-25.662,25.662c-14.15,0-25.662-11.511-25.662-25.662
				C365.844,127.739,377.357,116.227,391.506,116.227z"/>
			<path d="M493.556,160.462c0.989-6.242,1.554-12.462,1.554-18.574c0-57.127-46.476-103.603-103.604-103.603
				c-0.259,0-0.515,0.008-0.774,0.01C350.327,13.24,303.799,0,256,0C187.619,0,123.333,26.628,74.98,74.981
				C26.628,123.333,0,187.62,0,256s26.628,132.667,74.98,181.019C123.333,485.372,187.619,512,256,512
				c68.38,0,132.666-26.628,181.019-74.981S512,324.38,512,256C512,222.957,505.785,190.83,493.556,160.462z M227.898,17.836
				c-25.32,19.494-47.305,42.733-65.074,68.756c-12.899-9.372-24.454-20.74-34.196-33.859
				C158.615,33.862,192.377,21.955,227.898,17.836z M86.437,86.437c9.026-9.026,18.652-17.229,28.776-24.602
				c11.005,14.943,24.135,27.848,38.832,38.408c-2.744,4.539-5.37,9.148-7.86,13.831c-21.753,40.898-33.804,87-35.054,133.82H16.353
				C18.366,186.882,43.062,129.813,86.437,86.437z M86.437,425.563c-43.378-43.376-68.074-100.45-70.086-161.465h94.779
				c1.249,46.823,13.299,92.928,35.054,133.829c2.491,4.684,5.118,9.293,7.86,13.832c-14.697,10.56-27.827,23.464-38.833,38.408
				C105.091,442.79,95.463,434.588,86.437,425.563z M128.63,459.267c9.741-13.119,21.296-24.487,34.195-33.859
				c17.768,26.024,39.753,49.261,65.073,68.756C192.378,490.044,158.616,478.138,128.63,459.267z M247.899,488.754
				c-28.493-19.953-52.44-44.119-71.529-72.178c21.549-12.514,45.999-19.895,71.529-21.19V488.754z M247.899,379.168
				c-28.672,1.319-56.127,9.607-80.252,23.743c-2.474-4.129-4.878-8.313-7.156-12.595c-20.515-38.567-31.909-82.042-33.153-126.22
				h120.561V379.168z M247.899,247.894H127.338c1.245-44.174,12.64-87.646,33.153-126.211c2.277-4.282,4.682-8.464,7.156-12.594
				c24.126,14.136,51.579,22.423,80.252,23.742V247.894z M247.899,116.614c-25.531-1.295-49.979-8.676-71.529-21.19
				c19.089-28.057,43.036-52.225,71.529-72.178V116.614z M495.647,247.894h-37.569c9.547-15.734,20.683-36.646,28.235-58.871
				C491.859,208.103,494.986,227.8,495.647,247.894z M391.506,54.487c48.194,0,87.402,39.208,87.402,87.401
				c0,37.823-24.5,81.84-39.103,104.71c-22.204,34.772-42.108,54.32-48.299,58.112c-6.189-3.794-26.095-23.339-48.298-58.112
				c-14.604-22.873-39.103-66.888-39.103-104.71C304.105,93.695,343.313,54.487,391.506,54.487z M264.101,23.23
				c19.525,13.701,37.08,29.545,52.376,47.285c-11.208,11.776-19.674,26.182-24.38,42.181c-9.163,2.132-18.538,3.439-27.996,3.917
				V23.23z M364.184,41.948c-13.097,3.585-25.165,9.679-35.655,17.735c-13.256-15.339-28.103-29.331-44.375-41.828
				C312.082,21.134,339.144,29.276,364.184,41.948z M264.101,132.832c8.238-0.378,16.425-1.318,24.489-2.838
				c-0.448,3.905-0.687,7.871-0.687,11.894c0,37.646,20.823,79.291,37.034,106.007h-60.835V132.832z M264.101,264.097h71.226
				c9.59,14.174,19.917,27.471,29.466,37.897c5.71,6.234,10.228,10.451,13.827,13.315c-6.58,31.431-18.175,60.912-34.228,87.629
				c-24.134-14.151-51.603-22.448-80.291-23.769V264.097z M264.101,395.387c25.54,1.297,49.998,8.685,71.553,21.207
				c-18.999,27.806-43.084,52.215-71.553,72.193V395.387z M284.12,494.163c25.546-19.61,47.428-42.756,65.115-68.706
				c12.873,9.363,24.406,20.716,34.131,33.813C353.386,478.135,319.632,490.04,284.12,494.163z M425.563,425.563
				c-9.027,9.027-18.656,17.231-28.78,24.605c-10.994-14.929-24.108-27.822-38.787-38.376
				c16.703-27.676,28.888-58.166,35.972-90.668c3.651-0.762,10.522-4.138,24.253-19.129c9.55-10.425,19.877-23.723,29.467-37.897
				h47.962C493.636,325.112,468.94,382.184,425.563,425.563z"/>
		</g>
	</g>
</g>
</svg>